<svg width="506" height="79" viewBox="0 0 506 79" fill="none" xmlns="http://www.w3.org/2000/svg">
<path d="M8.51557 16.634C10.7658 16.634 12.6631 15.8398 14.2073 14.2073C15.8398 12.5748 16.634 10.6334 16.634 8.29496C16.634 5.95649 15.8398 4.01511 14.2073 2.3826C12.7072 0.794198 10.7658 0 8.51557 0C6.13298 0 4.10336 0.794198 2.42672 2.42672C0.794198 4.01511 0 6.00061 0 8.33908C0 10.6776 0.794198 12.6189 2.42672 14.2514C4.10336 15.8398 6.13298 16.634 8.51557 16.634Z" fill="white"/>
<path d="M503.963 52.7701C502.595 50.5198 499.948 48.4902 495.933 46.7695C492.006 44.9605 486.27 43.4603 478.681 42.3131L475.019 41.7395C471.71 41.2101 469.548 40.6806 468.444 40.107C467.341 39.5334 466.812 38.6069 466.812 37.4156C466.812 36.1801 467.606 35.2977 469.15 34.7241C470.783 34.0623 473.254 33.7534 476.607 33.7534C480.137 33.7534 482.961 34.2829 485.034 35.3859C487.152 36.489 489.226 38.4304 491.212 41.2101L504.889 35.6948C502.11 29.6942 498.58 25.3261 494.344 22.5464C490.153 19.7226 484.24 18.2666 476.607 18.2666C470.783 18.2666 465.974 19.0608 462.179 20.605C460.105 21.3992 458.296 22.414 456.796 23.5171V18.3989C449.781 18.3989 444.486 19.1049 441.001 20.5168C437.515 21.8846 434.868 25.0614 433.059 30.0913C432.264 32.4298 431.647 35.386 431.205 39.004H429.264L432.176 18.3107H415.807V32.0327C413.468 27.9734 410.512 24.7966 406.806 22.5023C402.394 19.6785 397.408 18.2224 391.804 18.2224C386.466 18.2224 381.392 19.5902 376.582 22.3699C372.435 24.7084 368.993 27.7969 366.258 31.6356C363.699 27.8411 360.478 24.8408 356.595 22.6788C351.477 19.7226 345.211 18.2224 337.711 18.2224C332.372 18.2224 327.43 19.5902 322.886 22.2817C318.429 24.9731 314.9 28.6794 312.34 33.3122C311.943 34.0182 311.59 34.68 311.281 35.3859C311.017 34.327 310.708 33.3122 310.355 32.3415C308.502 26.8704 305.634 22.8994 301.839 20.5168C298.089 18.046 293.28 16.8547 287.411 16.8547C281.323 16.8547 276.69 17.5606 273.469 18.9725C270.248 20.3403 267.689 23.6936 265.836 29.0324C264.909 31.6356 264.247 34.9447 263.762 39.004H261.865L264.777 18.3989H248.319V31.9885C245.981 27.9293 243.025 24.7525 239.318 22.4582C234.95 19.6343 229.92 18.1783 224.317 18.1783C218.978 18.1783 213.904 19.5461 209.095 22.3258C204.594 24.8849 200.932 28.2823 198.108 32.5621V18.3989H181.651V41.6072C181.651 45.9311 181.033 49.6815 179.798 52.8142C178.562 55.9027 176.709 58.2853 174.194 59.962C171.679 61.6386 168.546 62.4769 164.796 62.4769C158.84 62.4769 154.736 60.8444 152.398 57.5353C150.147 54.2261 149 48.9314 149 41.563V18.3989H135.058V0H119.086C108.629 0.0882443 101.084 1.01481 96.3626 2.69145C91.465 4.50046 88.4647 7.14779 87.3617 10.6334C86.744 12.5307 86.3469 15.1339 86.038 18.3548H74.9634V27.8852C73.2426 24.6202 71.0365 22.1493 68.3451 20.4727C64.5947 18.0018 59.7854 16.8105 53.9171 16.8105C47.8283 16.8105 43.1954 17.5165 39.9745 18.9284C36.7536 20.2962 34.1945 23.6495 32.3414 28.9882C31.4148 31.5914 30.753 34.9006 30.2677 38.9598H28.3704L31.2825 18.3548H16.3692H14.7808H0.396973V77.3902H14.7808H16.3692H31.2383V54.182C31.2383 49.858 31.856 46.1518 33.0915 43.0632C34.3269 39.8864 36.18 37.5038 38.695 35.7831C41.2099 34.0623 44.3426 33.2681 48.093 33.2681C54.0495 33.2681 58.1528 34.9006 60.4031 38.2098C62.7415 41.5189 63.8887 46.8136 63.8887 54.182V77.3902H79.7727V54.182C79.7727 46.4165 79.0667 39.9747 77.6548 34.8124H85.7292V77.3902H101.701V34.8565H119.086V77.4343H135.058V60.5797C135.322 61.5945 135.587 62.5652 135.94 63.4917C137.882 68.9629 140.705 72.9339 144.456 75.4047C148.25 77.7873 153.104 78.9786 158.972 78.9786C165.061 78.9786 169.694 78.3168 172.915 76.949C176.135 75.5371 178.695 72.1397 180.548 66.8009C181.474 64.1977 182.136 60.8885 182.621 56.8293H184.519L181.607 77.4343H198.108V64.5066C200.932 68.7864 204.55 72.2279 209.006 74.8311C213.772 77.5226 218.89 78.8904 224.317 78.8904C230.053 78.8904 235.347 77.6108 240.201 75.0076C243.289 73.331 246.025 70.9925 248.319 68.0363V77.3902H264.733V54.182C264.733 49.858 265.35 46.1518 266.586 43.0632C267.821 39.8864 269.674 37.5038 272.189 35.7831C274.704 34.1064 277.837 33.2681 281.587 33.2681C287.544 33.2681 291.647 34.9006 293.897 38.2098C296.236 41.5189 297.383 46.8136 297.383 54.182V77.3902H313.267V65.3008C315.738 69.2276 318.959 72.4044 322.886 74.787C327.386 77.4785 332.328 78.8463 337.711 78.8463C345.211 78.8463 351.344 77.5226 356.198 74.8753C360.213 72.6692 363.566 69.4924 366.169 65.3449C368.905 69.2276 372.347 72.3603 376.45 74.787C381.215 77.4785 386.333 78.8463 391.76 78.8463C397.496 78.8463 402.791 77.5667 407.644 74.9635C410.733 73.2869 413.468 70.9484 415.763 67.9922V77.3902H432.132V54.182C432.132 47.2107 434.117 42.0043 438.133 38.6069C441.221 36.0037 445.545 35.033 451.06 35.6066C451.237 40.5924 453.134 44.6075 456.752 47.696C460.635 50.9169 466.68 53.0789 474.975 54.182L478.637 54.6673C481.946 55.1085 484.417 55.5498 486.093 56.0351C487.77 56.4322 488.917 56.9175 489.491 57.4911C490.153 58.0206 490.461 58.7266 490.461 59.609C490.461 60.5797 490.153 61.3298 489.491 61.8151C488.917 62.2563 487.858 62.6093 486.314 62.7858C484.77 62.9623 482.475 63.0947 479.431 63.0947C475.372 63.0947 472.151 62.3004 469.724 60.6679C467.341 59.0354 465.356 56.8734 463.812 54.182L448.016 60.2708C450.575 64.9037 453.311 68.5658 456.134 71.2131C459.047 73.8605 462.311 75.7577 466.018 76.9049C469.768 78.0079 474.225 78.5374 479.387 78.5374C485.829 78.5374 491.035 77.6991 494.962 76.0224C498.977 74.3017 501.801 72.0956 503.477 69.4482C505.154 66.7568 505.992 63.8888 505.992 60.8444C506.081 57.6676 505.375 54.9321 503.963 52.7701ZM102.407 18.3989C102.496 18.046 102.584 17.693 102.672 17.4282C103.246 15.7075 104.658 14.6044 106.952 14.1191C108.982 13.722 113.041 13.5014 119.086 13.5455V18.3989H102.407ZM216.154 35.9154C218.493 34.4153 221.184 33.7093 224.273 33.7093C227.052 33.7093 229.611 34.4153 232.038 35.8272C234.509 37.2391 236.318 39.4011 237.465 42.3131C237.598 42.622 237.73 42.9308 237.818 43.2838H210.021C210.242 42.6661 210.507 42.0484 210.815 41.4307C212.051 39.1805 213.816 37.3273 216.154 35.9154ZM241.348 55.638C239.098 58.2853 236.539 60.1826 233.715 61.3298C230.891 62.4769 227.758 63.0505 224.317 63.0505C221.14 63.0505 218.404 62.4328 216.066 61.1974C213.816 59.9179 212.051 58.153 210.815 55.991C210.286 54.9762 209.889 53.9172 209.624 52.8142H238.127H247.437H248.275V60.1826L241.348 55.638ZM354.962 54.0937C352.756 57.0058 350.418 59.1237 347.903 60.4914C345.432 61.771 342.608 62.4328 339.387 62.4328C336.563 62.4328 334.048 61.9034 331.842 60.8885C329.636 59.7855 327.916 58.1971 326.724 56.1675C325.577 54.0496 324.959 51.4905 324.959 48.5343C324.959 45.887 325.577 43.5485 326.812 41.4748C328.048 39.3569 329.769 37.6803 331.931 36.5331C334.137 35.2977 336.608 34.68 339.387 34.68C341.726 34.68 343.667 34.9006 345.3 35.3418C346.976 35.7831 348.653 36.7096 350.33 38.0333C352.006 39.4011 353.903 41.3866 356.021 44.0339L362.066 40.0629C361.228 42.7543 360.831 45.5782 360.831 48.4902C360.831 52.2847 361.492 55.8586 362.86 59.256L354.962 54.0937ZM383.642 35.9154C385.98 34.4153 388.672 33.7093 391.76 33.7093C394.54 33.7093 397.099 34.4153 399.526 35.8272C401.997 37.2391 403.806 39.4011 404.953 42.3131C405.085 42.622 405.217 42.9308 405.306 43.2838H377.509C377.729 42.6661 377.994 42.0484 378.303 41.4307C379.538 39.1805 381.347 37.3273 383.642 35.9154ZM408.836 55.638C406.585 58.2853 404.026 60.1826 401.202 61.3298C398.379 62.4769 395.246 63.0505 391.804 63.0505C388.628 63.0505 385.892 62.4328 383.554 61.1974C381.303 59.9179 379.538 58.153 378.303 55.991C377.774 54.9762 377.376 53.9172 377.112 52.8142H405.615H414.924H415.763V60.1826L408.836 55.638Z" fill="white"/>
</svg>
